<svg id="diamondhead" xmlns="http://www.w3.org/2000/svg" viewBox="0 0 1817.96 372.38"><defs><style>#diamondhead .cls-1{fill:#84b9c1;} #diamondhead .cls-2{fill:#d95b5b;} #diamondhead .cls-3{fill:#f2dc1a;}</style></defs><title>jsconf</title><path class="cls-1" d="M329.57,208.49l-35.45-97.28L258.68,13.94H132.08L91.08,126l-41,112.09-19.68,53.8-19.68,53.8-3.35,9.17L4,364.06H119.22l8.66-26.46,8.65-26.45H253.24l8.65,26.45,8.66,26.46H386.26l-28.34-77.79ZM163.23,228.56l.35-1.05.34-1.06L179.4,178.8l15.48-47.66,14.45,44.47,14.45,44.47,1.38,4.24,1.37,4.24h-63.3Z"/><path class="cls-2" d="M329.57,208.49l28.35,77.78,28.34,77.79H270.55l-8.66-26.46-8.65-26.45H136.53l-8.65,26.45-8.66,26.46H4l3.36-9.17,3.35-9.17,19.68-53.8,19.68-53.8-.49,0,.49,0c4.68-.46,17.43-1.72,36.87-3.7s45.57-4.66,77-8q13.7-1.44,28.69-3l31.17-3.33c16.1-1.73,33-3.57,50.71-5.5S310.56,210.61,329.57,208.49Z"/><path class="cls-1" d="M530.77,281v-267H421V364.06H636.6V281H530.77Z"/><path class="cls-2" d="M530.77,281H636.6v83.08H421V199.25q26.58-3.06,54.09-6.29t55.7-6.62V281Z"/><path class="cls-1" d="M1277,13.94V140H1172.67V13.94H1062.88V364.06h109.79V227.57H1277V364.06H1386.8V13.94H1277Z"/><path class="cls-2" d="M1386.8,110.9V364.06H1277V227.57H1172.67V364.06H1062.88V111.7c20.27-3.57,39.65-7.14,58-10.71s35.67-7.13,51.79-10.67V140H1277V60.13c18.74,8.95,37.63,17.66,56.12,26.12S1369.68,102.93,1386.8,110.9Z"/><path class="cls-1" d="M1794.53,319.46l-7.8-21.4-7.8-21.4L1731.06,145.3,1683.19,13.94h-126.6l-26.18,71.55L1504.24,157l-37.87,103.51-37.86,103.51h115.23l8.65-26.46,8.66-26.45h116.7l8.65,26.45,8.66,26.46h115.72l-8.13-22.3Zm-206.78-90.9,4.84-14.89,4.83-14.88,11-33.83,11-33.82,14.65,45.08,14.64,45.08,1.18,3.63,1.18,3.63h-63.3Z"/><path class="cls-2" d="M1810,364.06H1695.06l-8.66-26.46-8.65-26.45h-116.7l-8.66,26.45-8.65,26.46H1428.51l37.86-103.51L1504.24,157q25.24,11.44,48.59,21.9t44.59,19.85q13.72,6.08,26.55,11.7t24.72,10.81c38.23,16.66,69.06,29.79,91.2,39.12s35.58,14.83,39,16.24l.67.28.22.09,7.35,21.21,7.36,21.22,7.73,22.3Z"/><path class="cls-1" d="M1007.47,120.46a170.47,170.47,0,0,0-64.61-81.88C913.78,19,878.31,8,839.82,8c-46.91,0-89.74,16.52-121.9,45s-53.64,69-57.84,117c-.25,2.85-.44,5.74-.57,8.64s-.19,5.84-.19,8.8c0,52.66,20.28,97.66,53,129.5s77.82,50.5,127.52,50.5c49.45,0,94.33-18.67,126.84-50.5s52.67-76.84,52.67-129.5a198.67,198.67,0,0,0-3.05-35A182.12,182.12,0,0,0,1007.47,120.46ZM839.82,265.16c-22.5,0-39.68-7.79-51.24-21.39s-17.5-33-17.5-56.25a124.81,124.81,0,0,1,1.14-17.22,96,96,0,0,1,3.41-15.43c4.43-14.21,12.08-25.58,22.82-33.4s24.58-12.09,41.37-12.09c12.82,0,24,2.6,33.31,7.46a58,58,0,0,1,22.58,21,76.07,76.07,0,0,1,9.22,22.25,113.18,113.18,0,0,1,3.13,27.41c0,23.24-6.06,42.65-17.62,56.25S861.83,265.16,839.82,265.16Z"/><path class="cls-3" d="M919.44,186.34A80.11,80.11,0,1,1,896,129.69,79.9,79.9,0,0,1,919.44,186.34Z"/><path class="cls-2" d="M1007.47,120.46a182.12,182.12,0,0,1,8.81,32.1,198.67,198.67,0,0,1,3.05,35c0,52.66-20.15,97.66-52.67,129.5s-77.39,50.5-126.84,50.5c-49.7,0-94.82-18.67-127.52-50.5s-53-76.84-53-129.5c0-3,.07-5.89.19-8.8s.32-5.79.57-8.64q29-3.71,57.93-7.5t57.62-7.71q30.63-4.17,60.74-8.43t59.34-8.58q29.09-4.31,57.12-8.66C971.48,126.29,989.73,123.38,1007.47,120.46Z"/></svg>