<svg xmlns="http://www.w3.org/2000/svg" viewBox="0 0 314.15 337.38"><defs><style>.cls-1{fill:#af3838;}.cls-2{fill:#234244;}</style></defs><title>jsconf</title><g id="slippers"><path class="cls-1" d="M41.85,78.71l-.13.21q-2.22,3.56-4.17,7.43A56.54,56.54,0,0,1,41.85,78.71Z"/><path class="cls-1" d="M143.6,163.69c-8.34,13-16.95,25.95-21.82,40.53-7.12,21.29-5.74,44.36-4.15,66.76.92,12.94,1.81,26.39-3,38.45-7.26,18.39-29.32,30.21-48.15,24.19C55,329.94,46,320.63,40.24,310s-8.56-22.53-10.94-34.35c-9.57-47.59-12.95-96.84-5.12-144.75,3.26-20,8.76-40.24,21.3-56.11,21.23-26.89,79.73-53.32,107.84-22.06,6.51,7.24,9.74,16.87,11.57,26.43,3,15.89,2.61,32.57-2.33,48C158.35,140.26,151.08,152,143.6,163.69Z"/><path class="cls-2" d="M144.74,201.63A39.66,39.66,0,0,1,140,215a35.76,35.76,0,0,1-23.2,16.79c0-6.14.09-12.68,3.5-17.79,1.3-1.95,3-3.58,4.43-5.45,6.28-8.34,5.52-20,3.22-30.14-5.66-25.12-18.65-47.93-32.3-69.76-25,14.78-49.86,30.91-68.15,53.45-7,8.65-13.24,19.63-10.44,30.4.67,2.55,1.82,5,2.52,7.49,1.79,6.44.62,13.35,1.76,19.93-10.08-3.27-17.49-12.66-19.9-23s-.29-21.32,4.33-30.85,11.59-17.73,19.09-25.21c15.25-15.19,32.9-27.7,51-39.23q6.82-4.33,13.73-8.54c2.21-1.35,4.41-2.7,6.63-4,2.79-1.67,3.37-2.4,5.55.08,6.83,7.77,12.08,18.32,17.29,27.23,10.46,17.86,19.38,36.83,24,57.09C145.21,182.62,146.31,192.46,144.74,201.63Z"/><path class="cls-1" d="M313.56,76.94l0,.25q.46,4.17.55,8.5A55.53,55.53,0,0,0,313.56,76.94Z"/><path class="cls-1" d="M184.05,109.39c1.89,15.35,4.07,30.72,2.17,46-2.78,22.27-14,42.48-25.11,62-6.41,11.27-13,23-13.94,36-1.4,19.73,13.39,39.92,33,42.62,11.95,1.64,24.13-2.84,33.89-9.93s17.46-16.61,24.71-26.25C267.94,221,292.27,178,305.9,131.43c5.69-19.41,9.49-40.08,5-59.81-7.53-33.42-48.87-82.53-87.73-66.48-9,3.71-16.07,11-21.85,18.83-9.6,13-16.43,28.24-18.62,44.27C180.87,81.89,182.34,95.63,184.05,109.39Z"/><path class="cls-2" d="M166.63,143.11a39.59,39.59,0,0,0-1.51,14,35.77,35.77,0,0,0,13.67,25.17c2.66-5.54,5.4-11.49,4.53-17.56-.33-2.32-1.18-4.53-1.64-6.83-2.06-10.23,3.65-20.38,10.12-28.58,15.95-20.21,37.52-35.16,59.26-49,16.15,24.13,31.62,49.42,38.38,77.66,2.58,10.82,3.45,23.42-3.73,31.92-1.7,2-3.77,3.68-5.51,5.67-4.39,5-6.32,11.77-10.19,17.22,10.5,1.39,21.24-3.87,27.87-12.12s9.47-19.11,9.42-29.7-2.78-21-6.32-31c-7.19-20.29-17.7-39.2-29.05-57.42q-4.29-6.86-8.7-13.64c-1.41-2.16-2.81-4.34-4.23-6.49-1.8-2.72-2-3.62-5.05-2.33-9.51,4.06-18.81,11.31-27.36,17.09-17.14,11.59-33.39,24.84-46.31,41.11C174.42,125.76,169.18,134.16,166.63,143.11Z"/></g></svg>