<svg enable-background="new 0 0 300 300" viewBox="0 0 300 300" xmlns="http://www.w3.org/2000/svg"><path d="m135 236.2c0 8.7-4.3 15.2-14.3 15.2s-13.8-4.7-19.2-14.5l-22.2 13.8c5.7 13.5 21 25.5 42.5 25.5s40.5-12 40.5-42 0-96.2 0-96.2h-27.3z" fill="none"/><path d="m242.8 195c-23.2-9.7-29.2-13.2-29.2-22s7.7-13 14.3-13c11.8 0 18 11.7 18 11.7s15.3-10 20.7-13.5c-8.3-13.7-17.5-21.2-38.5-21.2s-41 10.7-41 37.7 22.3 35.7 34.2 40.8c11.8 5.2 26.8 10.3 26.8 20.3s-8.4 16.2-19.1 16.2-20-5.3-28.5-17.2c-5.2 3-14.8 8.8-21.7 13.2 8 11.8 21.2 28.2 50.7 28.2s46.2-17.3 46.2-40.3c0-16.1-9.7-31.2-32.9-40.9z" fill="none"/><path d="m0 0v34.9c2.2-.8 4.6-1.1 7-.6.5.1 1 .2 1.5.4 5.7 1.8 9 7.9 9.9 13.6.4 1-.2 3 1.6 2.9 4.5.6 8.4 3.4 11.4 6.7 3.9 4.3 4.6 10.5 3.7 15.9-.6 3.7-1.1 7.6-2.8 11-.4 1.3-2 1.1-2.5.1-2.2-3.5-1-8-2.8-11.7-.4-1-1.9-.7-2 .3-.6 2.8 2 5.4 1.3 8.2-.5 1.1-2 .4-2.3-.5-1.3-2.5-1.9-5.5-4-7.6-.9-1-2.7.2-2 1.4 1.7 2.6 4.1 4.9 4.9 8 .3.8-.5 2.2-1.5 1.5-1.5-1.2-3.1-2.6-5.1-2.8-1 .1-.8 1.5-.2 1.9 2.1 1.7 4.3 3.2 5.9 5.4.8 1 .7 3.1-.9 3.1-1.1-.1-2.2-.5-3.2-.9-5-2.7-10.3-4.9-16-5.3-.6 0-1.2 0-1.9.1v3.3c1.5.2 3 .4 4.4.7 1 .2 2.1.5 3.1.8 3.6 1.1 7.1 2.8 9.7 5.6 2.1 2.4 4.1 4.9 5.5 7.7.5 1 .6 2.5-.6 3-2.8.9-5.2-2.3-8-1.3-.8.3-1.7 1.7-.8 2.3 1.8.9 4 .1 5.7 1.3.7.4.5 1.5-.2 1.8-3.1 2-7.2 1.3-10.3 3.4-1.4 1.4.9 3 2.2 2.1 3.2-1.7 6.9-2.9 10.5-2.6.8 0 1.8.4 1.6 1.4-.8 3.4-4.2 5.6-4.7 9.1-.2 1.1 1.1 2.6 2.1 1.6 2.1-1.8 2.3-5 4.3-6.9.9-1.2 3.1-.2 3.1 1.2.7 4.1-2 7.9-1.6 12 .3 1.7 2.8 1 3-.5 1.5-4.5.3-9.4 2-13.8.4-1.5 1.2-3.9 3.2-3.8 3.4.7 5.8 3.5 8.2 5.9 6.1 6.6 5.9 16.9 2.5 24.7-2.2 4.6-7.1 7.2-12.1 7.5-1.1.2-2.7-.4-3.2 1-1.6 3.5-3.8 7.1-7.4 8.6-4.7 1.7-9.3-1.3-12.7-4.3-.9-.7-1.7-2.1-3-1.6-2.1.5-4.3.9-6.4.9v142.9h300v-300zm30.6 50.7c-2.5-1.6-5.1-3.3-6.9-5.8-3.5-4.5-4-11.3-.9-16.1 2.3-3.4 6.4-4.8 10.2-5.9 1.7-3.5 3.7-7.2 7.4-9.1 4.3-2.2 9.3-.3 13 2.2.6.3 1.4 1.4 2.2.7 2.9-2.2 6.5-4.1 10.2-3.4.4.1.9.2 1.3.3 3 .9 5.6 3.2 6.9 6 1.7 3.8 1 8.2-.2 12.1-.2.5-.4 1.3.3 1.5 3.3 1 6.8 2.9 8.2 6.2 1.4 3.4.4 7.2-.8 10.5-1.3 4-4.1 7.9-8.2 9.4-3.6 1.4-7.2 2.8-10.5 4.9-1.4.9-2.8 2.1-4.6 2.1-.6.1-1.2-.4-1.2-1 .5-3.4 3.5-5.8 4.1-9.2.2-1-1.1-1.7-1.8-.9-1.9 1.8-1.4 5.2-3.6 6.8-1 .7-2.1-.5-1.9-1.5.5-3.5 2.4-6.8 2.3-10.5 0-.8-.2-1.9-1.2-2.1-1 0-1.6 1-2 1.8-2 4.1-.8 8.9-2.3 13.2-.2.8-1.2 1-1.7.4-1.1-2.5.7-5.3-.3-7.8-.3-.7-1.4-.6-1.7 0-1 1.8-.5 3.8-.5 5.8-.1 4.8-1.2 9.7-3.2 14.1-.6 1.6-3.2 3.7-4.4 1.5-1.6-4.6-.1-9.5-.7-14.2-.5-4.8-3.4-9.3-7.5-12zm11.8 60.4c-5.1 3.8-13.6.5-14.6-5.8-1.1-4.2.4-8.6 3-11.9 2.5-3.5 5.8-6.5 9.1-9.3 7.1-5.8 14.6-11.2 22.9-15.1 5.9-2.6 11.9-4.9 18-6.8 3.4-1.1 7.1-1.7 10.2-3.6 1.4-.8.6-3.1-.8-3.5-2.2.4-4.7-.7-5.1-3-.6-2.7 2.1-5.7 4.9-4.6 2 .3 3.4 2.5 2.9 4.4-1.4 2.8 2.6 4.1 4.7 3.8 3.7 0 4.9-6.3 1.1-7.2-2.5.1-5.6-2-4.6-4.8.4-3.4 5.4-4 7.1-1.3 1.1 1.3.4 3 .2 4.5.4 3 4.9 3.6 6.6 1.4.6-.8 1.5-1.7 1.4-2.7-1.6-1.2-3.6-2.4-4-4.6-.5-2.7 1-6.2 3.9-6.8.8-.2 1.6.1 2.4-.2 0-.9-.7-1.6-.8-2.5-.8-3.4 2.2-6.7 5.4-7.2 2.4-.2 4.2 1.8 5.3 3.6.2.4.8 1.2 1.2.6 1.5-1.4 3.4-3 5.6-2.8.4 0 .7.1 1 .2 2.4.7 4.4 3 3.9 5.6-.1 1.9-1.4 3.5-2 5.3 2.1.9 4.6 1.9 5.3 4.3.4 2.5-.5 5.4-2.8 6.7-1.6.8-3.4.4-5.1 0-.8-.1-.5 1-.6 1.5-.5 4.7-6.5 6.6-10.4 4.8-1.9-.9-2.6-3.1-3.6-4.6-2.5.6-5.5 2-6.2 4.8-.3 1.6 1.1 2.8 2.4 3.4 1.4.9 2.7-1 4.2-.4 2.8.2 4.3 3.6 3 5.9-1 2.4-4.6 2.7-6.3.8-1.5-1.2-.8-3.4-2.2-4.6-1.7-2.4-5.2-2.8-7.7-1.4-1.1.7-2.3 1.9-1.9 3.3.8 1.1 2 2.2 3.3 2.4 1.7-1.4 4.2-1.3 5.7.2 2.1 2 .9 6.3-2.1 6.7-1.3.2-2.6-.3-3.6-1.1-1.4-1.2-.9-3.5-2.5-4.6-1.4-1.1-2.9-3-4.9-2.3-13.1 3.7-26.7 8.7-35.9 19.1-4.3 4.8-8.5 10.2-9.9 16.7-1 4.8-3.1 9.7-7.1 12.7zm33-14.6c-3.7-1.9-7.9.5-11.7-.4-1.3-.1-.9-1.7.1-2 4.3-2.3 9.4-3.3 14.3-2.5 1.6.1 3.5.6 5-.3.7-.7-.1-1.7-.8-1.9-3.9-1.6-8.4-.9-12.2.7-2.3.9-4.7 2.2-7.2 2-1.1 0-1.7-1.3-1-2.2 2.3-2.6 6.1-3.1 8.4-5.6.4-.4.3-1.3-.5-1.2-2.6.2-4.4 2.8-7.1 2.9-.8.1-1.2-.9-.7-1.4.8-1.4 2.2-2.4 3.4-3.5 4.6-3.7 9.4-7.4 15-9.4 5.8-2.1 12.2-2.5 18.2-.9.4.1.9.2 1.3.3 4 1.2 7.6 3.6 10.6 6.5.8.8 1.9.5 2.9.5 4.3.2 9.3.6 12.3 4.1 2.4 2.8 2.2 6.9 1.2 10.3-.3 1.5-1.4 3.1-.6 4.6 1.6 4.6 3 10 .6 14.6-1.8 3.3-5.7 4.2-9 4.8-.9 3-.9 6.5-3.2 9-2.6 3.2-7.3 3.7-11 2.6-4.3-2.1-6.8-6.5-8.8-10.7-3.4-6.2-9.9-9.8-16.3-12.2-4-1.5-8.2-2.9-12.6-2.8-2.8.2-5.5 2.2-8.4 1-.9-.5-.2-1.6.5-2 3.5-2 7.6-3.3 11.7-3.3 2-.1 4 .7 6 .3 1-.3.3-1.6-.4-1.9zm-7.6 80.1c-2.3-2.4-3.9-5.4-5.3-8.4-.8-.8-1.9.2-2.8.3-3.5 1.1-8.1.7-10.2-2.8-4-6.6-2.6-15-.1-21.9 2-5 3.8-10.5 2.9-16-.6-3.1-3.3-5.8-2.9-9.2.2-1.4 1.9-.9 2.8-.4 3.7 2.1 6.3 5.8 8.1 9.6.8 1.2 2.1 3.4 3.8 2.4.7-2.2-1.8-3.8-2.4-5.7-.4-.5-.7-2.1.4-2 2 .8 3.1 3.1 5.2 3.5.6.1.7-.8.5-1.2-1.4-2.7-4.5-3.9-6.1-6.4-.4-.6 0-1.5.8-1.4 2.4-.2 4 2.1 6.3 2.4 1.1 0 1.1-1.6.3-2.1-3-2.8-7.3-3.7-11.4-3.8-2.6.1-2.1-3.1-.3-3.9 4.9-4 11.6-3.1 17.3-1.4 1.2.3 2.3.6 3.5 1 4.2 1.3 8.2 3.1 11.1 6.6 4.1 4.7 5.7 10.9 6.3 17 0 1.2 1.4 1.4 2.1 2 3.4 2.2 7.1 5.2 7.7 9.5.5 4.2-2.1 8-4.9 10.9-1 .8 0 2 .2 3 1.9 5.5-.9 11.9-5.7 14.9-3.3 2.1-7.5 1.2-10.8-.6-.7-.6-1.2.1-1.6.6-2 2.6-4.4 5.2-7.7 6.2-2.5.5-5.3-.8-7.1-2.7zm94.5 57.6c0 30-19 42-40.5 42s-36.8-12-42.5-25.5l22.2-13.8c5.3 9.8 9.2 14.5 19.2 14.5s14.3-6.5 14.3-15.2 0-98.2 0-98.2h27.3zm67.2 42c-29.5 0-42.7-16.3-50.7-28.2 6.8-4.3 16.5-10.2 21.7-13.2 8.5 11.9 17.8 17.2 28.5 17.2s19.2-6.2 19.2-16.2-15-15.2-26.8-20.3c-11.8-5.2-34.2-13.8-34.2-40.8s20-37.7 41-37.7 30.2 7.5 38.5 21.2c-5.3 3.5-20.7 13.5-20.7 13.5s-6.2-11.7-18-11.7c-6.7 0-14.3 4.2-14.3 13s6 12.3 29.2 22 32.8 24.8 32.8 40.8c0 23-16.7 40.4-46.2 40.4z" fill="#f3dc1c"/><path d="m125.3 40.5c.9-2-.4-4.6-2.4-5.3-.3-.1-.6-.2-.9-.2-3.4-.4-5.8 4-3.4 6.5 1.6 2.5 5.8 1.8 6.7-1z" fill="#f3dc1c"/><g fill="#fff"><path d="m38.7 77c1.2 2.2 3.8.2 4.4-1.5 2-4.4 3.1-9.3 3.2-14.1.1-1.9-.4-4 .5-5.8.3-.6 1.4-.8 1.7 0 1 2.5-.8 5.3.3 7.8.5.6 1.5.3 1.7-.4 1.6-4.2.5-9 2.5-13.2.4-.8 1-1.8 2-1.8 1 .1 1.2 1.3 1.2 2.1.1 3.6-1.8 6.9-2.3 10.5-.2 1 .9 2.2 1.9 1.5 2.2-1.6 1.7-5 3.6-6.8.7-.8 2-.1 1.8.9-.6 3.4-3.6 5.7-4.1 9.2 0 .6.6 1.1 1.2 1 1.7-.1 3.2-1.2 4.6-2.1 3.3-2 6.9-3.5 10.5-4.9 4.1-1.6 6.9-5.4 8.2-9.4 1.2-3.3 2.2-7.1.8-10.5s-4.9-5.3-8.2-6.2c-.6-.2-.5-1-.3-1.5 1.2-3.9 1.9-8.2.2-12.1-1.3-2.9-3.9-5.1-6.9-6-.4-.1-.9-.2-1.3-.3-3.8-.7-7.3 1.2-10.2 3.4-.8.6-1.5-.4-2.2-.7-3.7-2.5-8.7-4.4-13-2.2-3.6 1.9-5.6 5.6-7.4 9.1-3.8 1.1-7.9 2.5-10.2 5.9-3.1 4.8-2.6 11.6.9 16.1 1.8 2.5 4.4 4.2 6.9 5.8 4.1 2.7 7 7.2 7.4 12.1.5 4.6-1 9.5.6 14.1z"/><path d="m59.5 81.7c9.2-10.5 22.8-15.5 35.9-19.1 2-.7 3.5 1.2 4.9 2.3 1.6 1.1 1.1 3.4 2.5 4.6 1 .8 2.3 1.2 3.6 1.1 2.9-.4 4.2-4.7 2.1-6.7-1.5-1.5-4.1-1.6-5.7-.2-1.4-.2-2.6-1.2-3.3-2.4-.4-1.4.7-2.7 1.9-3.3 2.5-1.4 6-1 7.7 1.4 1.4 1.2.7 3.5 2.2 4.6 1.7 1.8 5.2 1.6 6.3-.8 1.4-2.3-.2-5.7-3-5.9-1.5-.6-2.7 1.3-4.2.4-1.3-.6-2.7-1.8-2.4-3.4.7-2.7 3.7-4.1 6.2-4.8 1.1 1.6 1.7 3.7 3.6 4.6 3.8 1.8 9.9-.2 10.4-4.8.2-.5-.2-1.6.6-1.5 1.7.3 3.5.8 5.1 0 2.2-1.3 3.2-4.2 2.8-6.7-.6-2.5-3.2-3.4-5.3-4.3.6-1.8 1.9-3.3 2-5.3.5-2.6-1.5-4.9-3.9-5.6-.3-.1-.7-.2-1-.2-2.2-.2-4.1 1.3-5.6 2.8-.5.6-1-.2-1.2-.6-1.1-1.9-2.9-3.8-5.3-3.6-3.2.5-6.2 3.8-5.4 7.2.1.9.8 1.6.8 2.5-.7.3-1.6 0-2.4.2-2.9.6-4.4 4-3.9 6.8.4 2.1 2.3 3.4 4 4.6.1 1-.8 1.9-1.4 2.7-1.7 2.2-6.2 1.6-6.6-1.4.2-1.5.9-3.2-.2-4.5-1.7-2.8-6.6-2.1-7.1 1.3-1 2.8 2.1 4.9 4.6 4.8 3.8.9 2.6 7.2-1.1 7.2-2.1.4-6.1-1-4.7-3.8.5-1.9-.9-4.1-2.9-4.4-2.7-1.1-5.5 1.9-4.9 4.6.4 2.3 3 3.5 5.1 3 1.3.4 2.2 2.7.8 3.5-3.1 1.9-6.8 2.5-10.2 3.6-6.1 2-12.2 4.2-18 6.8-8.3 4-15.8 9.4-22.9 15.1-3.3 2.8-6.6 5.7-9.1 9.3-2.6 3.3-4.1 7.8-3 11.9 1.1 6.3 9.6 9.6 14.6 5.8 4-3 6.1-7.9 7.2-12.7 1.2-6.4 5.5-11.8 9.8-16.7zm62.4-46.7c.3 0 .6.1.9.2 2.1.7 3.3 3.2 2.4 5.3-.9 2.8-5.1 3.5-6.8 1.1-2.2-2.5.1-7 3.5-6.6z"/><path d="m17.9 91.3c1 .4 2.1.8 3.2.9 1.6 0 1.8-2.2.9-3.1-1.6-2.2-3.8-3.8-5.9-5.4-.7-.5-.9-1.9.2-1.9 2 .2 3.6 1.6 5.1 2.8 1 .7 1.7-.7 1.5-1.5-.7-3.1-3.2-5.4-4.9-8-.7-1.2 1.1-2.4 2-1.4 2.1 2.1 2.7 5 4 7.6.3.9 1.8 1.6 2.3.5.7-2.8-1.9-5.4-1.3-8.2 0-1 1.5-1.3 2-.3 1.8 3.6.6 8.2 2.8 11.7.6 1 2.2 1.2 2.5-.1 1.7-3.4 2.1-7.3 2.8-11 .9-5.5.2-11.7-3.7-15.9-3-3.3-6.9-6.1-11.4-6.7-1.7.1-1.2-1.9-1.6-2.9-.9-5.7-4.2-11.8-9.9-13.6-.5-.2-1-.3-1.5-.4-2.4-.5-4.8-.2-7 .6v51.2c.6 0 1.2-.1 1.9-.1 5.6.3 11 2.6 16 5.2z"/><path d="m75.7 98.4c-2 .5-4-.3-6-.3-4.1 0-8.2 1.3-11.7 3.3-.7.4-1.4 1.5-.5 2 2.8 1.2 5.5-.8 8.4-1 4.4-.2 8.6 1.2 12.6 2.8 6.4 2.4 12.9 6 16.3 12.2 2 4.2 4.5 8.6 8.8 10.7 3.7 1 8.4.5 11-2.6 2.3-2.5 2.3-6 3.2-9 3.3-.6 7.2-1.5 9-4.8 2.4-4.6 1-10-.6-14.6-.8-1.5.3-3.1.6-4.6 1-3.3 1.2-7.4-1.2-10.3-3-3.4-8-3.9-12.3-4.1-1-.1-2.1.3-2.9-.5-2.9-3-6.6-5.3-10.6-6.5-.4-.1-.8-.2-1.3-.3-6-1.6-12.4-1.2-18.2.9-5.6 1.9-10.4 5.7-15 9.4-1.2 1.1-2.6 2.1-3.4 3.5-.5.6 0 1.5.7 1.4 2.7-.2 4.5-2.7 7.1-2.9.7-.1.9.8.5 1.2-2.3 2.5-6.1 3-8.4 5.6-.7.8-.1 2.2 1 2.2 2.5.3 4.9-1.1 7.2-2 3.8-1.5 8.3-2.2 12.2-.7.8.3 1.5 1.2.8 1.9-1.5.9-3.3.4-5 .3-4.9-.8-10 .2-14.3 2.5-1 .3-1.4 1.9-.1 2 3.8.9 8-1.4 11.7.4.8.3 1.5 1.6.4 1.9z"/><path d="m82.7 172.9c.3-.5.9-1.2 1.6-.6 3.2 1.8 7.5 2.7 10.8.6 4.8-3.1 7.6-9.4 5.7-14.9-.2-.9-1.2-2.1-.2-3 2.8-2.9 5.4-6.7 4.9-10.9-.6-4.3-4.3-7.3-7.7-9.5-.7-.6-2.1-.8-2.1-2-.6-6.1-2.3-12.3-6.3-17-2.8-3.4-6.9-5.3-11.1-6.6-1.2-.4-2.3-.7-3.5-1-5.6-1.7-12.3-2.6-17.3 1.4-1.8.8-2.3 4 .3 3.9 4 0 8.3 1 11.4 3.8.7.5.7 2.1-.3 2.1-2.3-.3-3.9-2.6-6.3-2.4-.8-.1-1.2.9-.8 1.4 1.6 2.5 4.6 3.8 6.1 6.4.2.4.1 1.3-.5 1.2-2.2-.4-3.2-2.8-5.2-3.5-1.1-.1-.8 1.4-.4 2 .6 2 3.2 3.5 2.4 5.7-1.7 1-3.1-1.1-3.8-2.4-1.7-3.8-4.3-7.5-8.1-9.6-.8-.5-2.6-.9-2.8.4-.4 3.3 2.3 6 2.9 9.2.9 5.5-.9 11-2.9 16-2.5 6.9-3.9 15.3.1 21.9 2.1 3.4 6.6 3.9 10.2 2.8.9-.1 2-1.1 2.8-.3 1.4 3 3 6 5.3 8.4 1.8 1.9 4.6 3.3 7.2 2.5 3.2-.7 5.6-3.4 7.6-6z"/><path d="m6.4 156.4c1.3-.5 2.1 1 3 1.6 3.4 3 8.1 6 12.7 4.3 3.7-1.5 5.9-5.1 7.4-8.6.5-1.4 2.1-.8 3.2-1 5-.3 9.9-2.9 12.1-7.5 3.4-7.8 3.6-18.1-2.5-24.7-2.4-2.4-4.8-5.2-8.2-5.9-2-.2-2.8 2.3-3.2 3.8-1.7 4.5-.5 9.4-2 13.8-.2 1.5-2.7 2.2-3 .5-.4-4.1 2.3-7.9 1.6-12-.1-1.4-2.2-2.4-3.1-1.2-2.1 1.9-2.3 5-4.3 6.9-1 .9-2.3-.6-2.1-1.6.5-3.5 3.8-5.8 4.7-9.1.2-.9-.8-1.4-1.6-1.4-3.7-.3-7.3.9-10.5 2.6-1.3.9-3.6-.7-2.2-2.1 3.1-2.1 7.2-1.4 10.3-3.4.7-.3.9-1.4.2-1.8-1.7-1.2-3.9-.4-5.7-1.3-.9-.7 0-2 .8-2.3 2.8-.9 5.2 2.2 8 1.3 1.2-.5 1.1-2 .6-3-1.4-2.9-3.4-5.4-5.5-7.7-2.6-2.8-6-4.5-9.7-5.6-1-.3-2-.6-3.1-.8-1.3-.3-2.8-.6-4.3-.8v67.8c2.2.1 4.4-.3 6.4-.8z"/></g></svg>